<?xml version="1.0" encoding="utf-8"?>
<!-- Generator: Adobe Illustrator 18.0.0, SVG Export Plug-In . SVG Version: 6.00 Build 0)  -->
<!DOCTYPE svg PUBLIC "-//W3C//DTD SVG 1.1//EN" "http://www.w3.org/Graphics/SVG/1.1/DTD/svg11.dtd">
<svg version="1.1" id="Layer_1" xmlns="http://www.w3.org/2000/svg" xmlns:xlink="http://www.w3.org/1999/xlink" x="0px" y="0px"
	 viewBox="0 0 173.3 223.9" enable-background="new 0 0 173.3 223.9" xml:space="preserve">
<path fill="#5A9EC1" d="M156.2,48.6c4.9-7.3,3.4-16.9-3.1-22.4c0,0,0.1,0,0.1,0c-0.6-0.5-1.1-0.9-1.7-1.3
	c-7.9-5.3-18.5-3.1-23.8,4.7l-5.5,8.2l-10.1,15.1L32.3,172.3L23.7,216l37.1-24.6l79.8-119.4l5.1-7.6h0l5.1-7.6L156.2,48.6z"/>
<g>
	<polygon fill="#FEC042" points="48.6,178.4 20,159.4 99.8,39.9 128.4,59 	"/>
	<polygon fill="#FBB03B" points="39.6,172.5 20,159.4 99.8,39.9 119.4,53 	"/>
	<polygon fill="#F09D3E" points="30.1,166.1 20,159.4 99.8,39.9 109.9,46.6 	"/>
	
		<rect x="102" y="32.8" transform="matrix(0.8314 0.5557 -0.5557 0.8314 43.3769 -59.1449)" fill="#BCBEC0" width="34.3" height="18.2"/>
	
		<rect x="99.5" y="41.1" transform="matrix(0.8314 0.5557 -0.5557 0.8314 45.0513 -57.105)" fill="#919FA7" width="34.3" height="9.1"/>
	<path fill="#EC524F" d="M138.5,43.9l5.5-8.2c5.3-7.9,3.1-18.5-4.7-23.8c-7.9-5.3-18.5-3.1-23.8,4.7l-5.5,8.2L138.5,43.9z"/>
	<path fill="#D24546" d="M125.3,25.9c-0.8-5,2.3-10.2,7.1-11.7c2.8-0.9,5.6-1,8.5-0.9c-0.6-0.5-1.1-0.9-1.7-1.3
		c-7.9-5.3-18.5-3.1-23.8,4.7l-5.5,8.2l28.5,19.1l5.1-7.6C135.9,37.5,126.5,33.6,125.3,25.9z"/>
	<polygon fill="#FDCDAB" points="20,159.4 48.6,178.4 11.5,203 	"/>
	<polygon fill="#4F565C" points="15.7,181.5 11.5,203 29.8,190.9 	"/>
</g>
</svg>
