<?xml version="1.0" encoding="UTF-8" standalone="no"?> <svg id="Layer_1" data-name="Layer 1" xmlns="http://www.w3.org/2000/svg" viewBox="0 0 512 512"><title>Notes</title><path d="M405.333,42.667H106.667a64.073,64.073,0,0,0-64,64V405.333a64.073,64.073,0,0,0,64,64H341.333a128.145,128.145,0,0,0,128-128V106.667A64.073,64.073,0,0,0,405.333,42.667Zm-320,362.667V106.667a21.357,21.357,0,0,1,21.333-21.333H405.333a21.357,21.357,0,0,1,21.333,21.333V320H384a64.073,64.073,0,0,0-64,64v42.667H106.667A21.357,21.357,0,0,1,85.333,405.333Zm277.333,18.633V384A21.357,21.357,0,0,1,384,362.667h39.966A85.653,85.653,0,0,1,362.667,423.966Z"/><path d="M170.667,192H341.333a21.333,21.333,0,0,0,0-42.667H170.667a21.333,21.333,0,0,0,0,42.667Z"/><path d="M170.667,277.333H341.333a21.333,21.333,0,0,0,0-42.667H170.667a21.333,21.333,0,0,0,0,42.667Z"/><path d="M256.014,320H170.667a21.333,21.333,0,0,0,0,42.667h85.347a21.333,21.333,0,1,0,0-42.667Z"/></svg>